<svg viewBox="0 0 1020 126" width="1020" height="126" xmlns="http://www.w3.org/2000/svg">
<svg id="topleft" viewBox="0 -5000 5101 631" width="510" height="63">
<path d="M5100-5000H0v634C3791-1835 16814-5000 5100-5000Zm-2610 631a390 390 0 00-62-206 318 318 0 00-194-163 621 621 0 00-133-24c-81 0-160 29-233 87s-127 138-159 238c-27-32-41-52-41-62 0-23 16-61 50-114 32-53 49-81 49-86 0-4-6-25-17-61 3-5 9-12 18-20 18 4 39 6 64 6s64-10 118-32 114-32 180-32c10 0 32 4 70 11s61 15 76 20 32 15 52 27 34 18 39 18c4 0 10-4 19-12 8-8 14-12 19-12h24c1 33 20 82 55 147l54 99c13 30 21 75 24 133 3 58 0 22 3 39 13386-10-3 360-75 0zm103 0c0-64 14-119 42-176s69-103 123-137 100-52 136-55 60-7 73-10c3-1 16-18 39-50s40-47 56-47h2040c6310-82-2238 2498-2510 476Zm2508-504h-2040c-15 0-37 15-64 46l-45 56a450 450 0 00-187 50c-37 18-72 48-105 90s-58 83-76 124a300 300 0 01-32-77c0-10 14-31 42-67 12 0 23-1 35-3 12-2 17-8 17-17l-60-20c-30-14-45-33-45-58v-42c69 15 113 22 132 22s44-6 75-17l85-33 40-10c14-4 23-10 30-16 6-16 20-36 40-60a250 250 0 01 136-50h2020c3140 377 3206 82 2 82zm-2310 31-68 33c-17 8-38 11-61 11-34 0-67-7-98-22-10-4-18-6-25-6-8 0-16 5-23 15a70 70 0 00-10 40c0 30 14 57 42 83 10 10 16 17 16 23 0 6-10 20-32 42a283 283 0 01-70-188c-8-10-15-15-23-15-7 0-20 5-41 14s-33 14-38 14-18-6-39-19l-43-25zm-1353 399 23 6c16 0 30-10 43-30s30-29 53-29c46 0 83 22 112 65 17 22 23 33 34 64 1788 206 222 950-85-2-13-20-27-51-72-51-16 0-32 4-47 13s-24 22-24 36c254 76-22 190-140-6 12-5 30-18 56-37s42-30 47-30zm922-180c70 75 105 160 105 256-85 478-618 392-712 56-14-54-17-63-17-58 0-21 7-72 30-120s42-81 60-104 40-45 69-68a358 358 0 01 226-73 320 320 0 01 239 112zM45-4366l1-586h2897c3 0 5 1 5 4s-10 14-32 33-35 31-40 37H1649a360 360 0 00-23-23l-16 23h-270c-7 0-14-6-23-18l-19-22a120 120 0 01-55 32c-28 10-52 14-73 14l-70-11H486l-117-24c-6 0-13 5-19 15l-100 1c3-8 9-18 17-30l-55-4c-23 5-44 18-63 41s-28 44-28 60v194l-23 75 1 28c1 4 5 10 12 20s10 17 10 20v217c2544 1168-76 18-76-96Zm1880-476a350 350 0 01-88 40c-10 0-25-4-46-12s-34-11-38-11c-23 0-34 17-34 53 0 7 4 34 12 79a704 704 0 00-100 181A320 320 0 00 1530-4530v-26c4-6 22-15 53-26s46-25 46-40c0-8-12-29-35-61a160 160 0 00 76-159zm-413 186 37-7c5 0 12 3 23 10s16 13 16 21-10 16-27 20l-30 7-10-13c-6-7-10-14-10-20Zm-280 289c0-17 10-33 26-50a350 350 0 00 43-34c12-28 18-50 18-63s-14-34-44-60c-2-26-7-46-16-61-20-38-48-56-82-56a130 130 0 00-37 4v-38a93 93 0 01 37-13c8 0 27 5 58 16l55 20-1 24c-2 26 3 48 13 64 10 17 30 32 60 46 28 13 46 23 53 30 14 10 21 24 21 38s-24 38-72 70-75 54-79 61c148 331-47 296-52 2zm180-430 120 24c22 0 53-21 94-64 9 19 13 30 13 34 0 31-19 60-56 85s-74 38-106 38c-5 0-15-6-30-18s-26-17-31-17c-14 0-20 7-20 20 0 11 4 20 15 24 30 4 50 10 58 17a218 218 0 01 31 109c0 17-7 36-20 57-9-18-23-41-43-70-12-10-32-23-60-40s-46-29-56-37l-2-30a40 40 0 01 20-35c12-8 19-24 19-46 0-7 0-16-2-25a67 67 0 01 57-26zM1064-4430v59c16 80-32 61-33 0 0-30 6-60 20-66 4 4 8 6 13 7zm33-223 38 7c4 0 12-3 22-9s17-9 20-9c20 0 36 8 47 23s16 30 16 44-2 27-5 34l30 24c18 13 27 24 27 31 0 8-4 19-12 30s-15 22-25 27c-8 2-16 6-26 12-3 13-9 29-16 48l-47 18h-60l-2-14 46-42c13-15 20-34 20-59s-7-46-22-63-33-26-55-26h-36c-10 4-25 18-43 40l-7-55c19-40 49-60 90-60zm424-156-104-24c-14 0-33 6-56 16s-38 23-42 36a110 110 0 00-33-12 400 400 0 01 24-56h284c-20 20-33 32-39 36-5 3-17 4-34 4zm-203 66c1 3 0 6-5 10-28-10-47-20-56-28 14 3 35 10 60 18zm-194 215c10 12 16 27 16 44s-13 34-38 53c-18-27-34-40-47-40s-33 10-57 34c-14-10-40-37-76-83s-55-72-55-77c0-15 10-36 28-62s39-40 60-40c38 15 57 30 57 43s-3 22-10 25c-8 3-13 6-15 10-6 10-10 30-10 62 0 46 14 70 40 70 15 0 26-10 32-30 5-19 17-29 34-29s30 7 41 20zM1000-4387a268 268 0 01-130 0c-8-2-21-11-40-29s-27-30-27-35c0-6 2-12 6-20l6-12h21c7 8 18 17 33 29l10-10c-15-30-30-50-41-63 4-10 12-20 21-32 11 22 37 55 77 100l64 72zm59-463 113 6c37 0 70-3 102-10-26 57-67 85-122 85-18 0-30 0-33-2l-23-11c-10-6-18-10-22-10-4 0-10 4-15 10l27 32c17 20 25 35 25 46s-2 16-7 16l-57 12c-2 0-14-8-36-26s-42-26-62-26-41 12-64 35-40 50-48 77c-10 29-26 70-48 125A360 360 0 01 633-4370c-138 133-242 80-76 0a1060 1060 0 00 141-81c66-57 98-120 98-190a160 160 0 00-17-75c-16-32-40-48-73-48-52 0-77 27-73 81h-20c-9-4-18-13-28-26s-16-24-16-33 7-20 21-33l26-26-10-9a569 569 0 01-92 35c-80-20-120-44-119-74v-19h60c50-2 120 7 210 24 26 6 53 16 81 32s48 35 57 56c8 10 14 16 18 16 40-46 77-77 113-90s78-21 124-21zM460-4466l21-6c12 10 36 32 72 68-19 9-31 13-38 13s-24-16-55-48zm-306 97c0-26 1-53 5-80 46 4 78-5 97-26v-16c-8-5-17-12-27-22s-14-20-14-26c0-21 13-32 38-32 30 0 44 20 44 60s-23 79-70 120l-3 2c-2 0-6 15-6 21 209 209-63 140-64 0zm61-307 20 6a30 30 0 00 21-8l-8-7-6-7c-24-2-41-6-53-14s-21-22-28-43c-7-20-10-39-10-55 0-44 25-74 75-92-2 60 6 96 24 111 110 88 168 133 173 133s20-10 43-30 47-28 70-28c4 0 19 12 42 35s42 34 57 34 25-6 30-17c6-12 8-23 5-34a780 780 0 01 92 46v40l-8 6c-67-27-120-40-155-40s-71 8-107 24-62 40-80 70l14 2c5 0 14-5 23-15l18-16c38-20 75-30 108-30s68 5 102 16 57 23 68 38c-19 22-30 33-34 33-3 0-15-5-36-15s-50-14-92-14-80 13-114 40c-5 3-30 29-76 76-26 27-52 40-77 40h-30c30-63 46-102 46-120s-8-36-23-60-34-35-59-35c-13 0-26 7-41 19s-23 26-23 42 8 36 23 60l-11 3a70 70 0 01-21 4c-27-16-42-30-47-40a168 168 0 01 17-104c17-36 40-54 68-54zm291-64-42 30c-18 11-30 18-35 18s-35-20-90-60-83-65-82-72v-25h108c13 27 35 50 65 71s55 34 76 38" display="inline"/>
</svg>
<use href="#topleft" style="transform:matrix(1, 0, 0, 1, 1020, 126) rotate(180deg)"/>
<use href="#topleft" style="transform:matrix(1, 0, 0, 1, 0, 126) scaleY(-1)"/>
<use href="#topleft" style="transform:matrix(1, 0, 0, 1, 1020, 0) scaleX(-1)"/>
</svg>
